<svg id="Capa_1" data-name="Capa 1" xmlns="http://www.w3.org/2000/svg" width="300" height="280" viewBox="0 0 300 280"><defs><style>.cls-1{fill:#f2f2f2;}.cls-2{fill:#d5d5d5;}.cls-3{fill:#fed583;}.cls-4{fill:#1c1d21;}</style></defs><title>lista-viernes-colabora-crowdfunding</title><rect class="cls-1" x="77.58" y="146.86" width="144.84" height="118.48" rx="16.31"/><rect class="cls-2" x="104.89" y="118.94" width="90.21" height="27.93"/><path class="cls-3" d="M198.32,192a12.5,12.5,0,1,1-12.5-12.5h0A12.5,12.5,0,0,1,198.32,192Z"/><path class="cls-3" d="M203.73,222.35a17.91,17.91,0,1,0-35.82,0v18.33h35.82Z"/><path class="cls-3" d="M162.5,192A12.5,12.5,0,1,1,150,179.45,12.5,12.5,0,0,1,162.5,192Z"/><path class="cls-3" d="M167.91,222.35a17.91,17.91,0,0,0-35.81-.84q0,.42,0,.84v18.33h35.81Z"/><path class="cls-3" d="M126.67,192a12.49,12.49,0,1,1-12.49-12.5A12.48,12.48,0,0,1,126.67,192Z"/><path class="cls-3" d="M132.1,222.35a17.91,17.91,0,1,0-35.82,0v18.33H132.1Z"/><path class="cls-3" d="M106,14.69v79a7.91,7.91,0,0,0,7.9,7.92h5.79V78.17a29.7,29.7,0,0,1,29.7-29.7h0a29.72,29.72,0,0,1,29.71,29.72v23.47h5.79a7.92,7.92,0,0,0,7.91-7.91h0V66.63A49,49,0,0,0,178.48,32v-.06a21.21,21.21,0,0,1-6.24-15V14.69"/><path class="cls-1" d="M119.72,101.64a29.71,29.71,0,1,1,29.72,29.72,29.73,29.73,0,0,1-29.72-29.72Z"/><circle class="cls-3" cx="149.42" cy="96.77" r="10.69"/><path class="cls-3" d="M149.44,131.36a29.52,29.52,0,0,0,15.31-4.25v-4.34a15.32,15.32,0,0,0-30.64,0v4.34A29.69,29.69,0,0,0,149.44,131.36Z"/><path class="cls-4" d="M225.42,163.17V249a19.33,19.33,0,0,1-19.31,19.31H93.89A19.33,19.33,0,0,1,74.58,249V163.17a19.32,19.32,0,0,1,19.31-19.31h8V118.94a3,3,0,0,1,6,0v24.92h24.24a3,3,0,0,1,0,6H93.89a13.33,13.33,0,0,0-13.31,13.3V249a13.32,13.32,0,0,0,13.31,13.29H206.11A13.3,13.3,0,0,0,219.41,249V163.17a13.31,13.31,0,0,0-13.3-13.3h-11a3,3,0,0,1-3-3h0V118.94a3,3,0,0,1,6,0v24.92h8A19.32,19.32,0,0,1,225.42,163.17Zm-70.6-13.3a3,3,0,0,0,0-6h-3.69a3,3,0,0,0,0,6Zm19.41,0a3,3,0,1,0,0-6h-3.09a3,3,0,0,0,0,6Zm21.43,54a20.9,20.9,0,0,1,11.07,18.44v18.33a3,3,0,0,1-6,0V222.35a14.9,14.9,0,1,0-29.79,0v18.35a3,3,0,0,1-6,0V222.35a14.91,14.91,0,0,0-29.81,0v18.33a3,3,0,0,1-6,0V222.35a14.9,14.9,0,1,0-29.8,0v18.33a3,3,0,0,1-6,0V222.35a20.93,20.93,0,0,1,11.06-18.44,15.5,15.5,0,1,1,21.82-2.11,14.58,14.58,0,0,1-2.12,2.11,21.09,21.09,0,0,1,8.06,7.65,21.08,21.08,0,0,1,8.06-7.65A15.5,15.5,0,1,1,162,201.8a14.58,14.58,0,0,1-2.12,2.11,21,21,0,0,1,8.05,7.65,21.23,21.23,0,0,1,8.06-7.65,15.5,15.5,0,1,1,21.82-2.11,14.58,14.58,0,0,1-2.12,2.11Zm-81.48-2.47a9.49,9.49,0,1,0-9.49-9.49h0a9.52,9.52,0,0,0,9.5,9.49Zm35.82,0a9.49,9.49,0,1,0-9.49-9.49h0a9.52,9.52,0,0,0,9.52,9.49Zm35.81,0a9.49,9.49,0,1,0-9.48-9.5h0a9.52,9.52,0,0,0,9.49,9.49ZM103,93.74v-79a3,3,0,1,1,6,0v79a4.91,4.91,0,0,0,4.89,4.9h2.79V78.17a32.7,32.7,0,0,1,32.68-32.7h0a32.76,32.76,0,0,1,32.71,32.72V98.64h2.79a4.87,4.87,0,0,0,4.9-4.85s0,0,0,0V66.63a45.67,45.67,0,0,0-13.47-32.51l0,0A24,24,0,0,1,169.2,16.9V14.69a3,3,0,1,1,6,0v2.2a18.1,18.1,0,0,0,5.35,12.92l0,.05a51.7,51.7,0,0,1,15.23,36.76V93.74A10.89,10.89,0,0,1,185,104.65H182a32.72,32.72,0,0,1-26.84,29.21l-.36.06-.85.14-.88.11-.75.07-1,.07h-3.77a12.26,12.26,0,0,1-1.34-.1H146a9.1,9.1,0,0,1-1.25-.16l-.49-.08-1.12-.19-.38-.09q-.62-.12-1.23-.27l-.44-.12-1.18-.33-.17-.06c-.47-.14-.94-.3-1.4-.47l-.18-.08a30.67,30.67,0,0,1-5.54-2.66l-.16-.11a32.75,32.75,0,0,1-15.53-24.91H114a10.92,10.92,0,0,1-11-10.9S103,93.75,103,93.74Zm46.41,34.62c.5,0,1,0,1.51-.05h.36l1.19-.12h.33c.43-.05.87-.11,1.33-.19h.12a27.08,27.08,0,0,0,7.47-2.56v-2.59a12.31,12.31,0,1,0-24.62,0v2.56c.18.1.35.19.53.27l.46.22c.25.13.51.24.78.36l.63.26.67.26c.44.16.88.32,1.33.46l.24.07c.4.12.8.22,1.2.33l.43.1,1,.22.47.08c.34.06.68.12,1,.16l.48.06,1.08.1h.43c.5,0,1,0,1.5,0Zm0-23.92a7.68,7.68,0,1,0-7.67-7.68h0a7.66,7.66,0,0,0,7.65,7.67Zm26.7-2.78A26.74,26.74,0,0,0,149.42,75h0a26.69,26.69,0,0,0-18.24,46.17,18.4,18.4,0,0,1,9.07-14.2,13.7,13.7,0,1,1,19.35-1,11.68,11.68,0,0,1-1,1,18.32,18.32,0,0,1,9.07,14.22c.21-.2.43-.39.64-.61a26.53,26.53,0,0,0,7.82-18.92ZM122.75,78.18v4.57a32.8,32.8,0,0,1,3.56-4.23,32.46,32.46,0,0,1,23.13-9.58h0a32.64,32.64,0,0,1,26.7,13.85v-4.6a26.73,26.73,0,0,0-26.7-26.7h0a26.68,26.68,0,0,0-26.69,26.65v0Z"/></svg>